<svg xmlns="http://www.w3.org/2000/svg" viewBox="0 0 1920 1080" preserveAspectRatio="xMidYMid slice">
  <defs>
    <linearGradient id="bg" x1="0" y1="0" x2="1" y2="1">
      <stop offset="0" stop-color="#101617"/>
      <stop offset="0.46" stop-color="#1b1b18"/>
      <stop offset="1" stop-color="#050607"/>
    </linearGradient>
    <linearGradient id="floor" x1="0" y1="0" x2="1" y2="0">
      <stop offset="0" stop-color="#2d2c27"/>
      <stop offset="0.5" stop-color="#121313"/>
      <stop offset="1" stop-color="#3a2f25"/>
    </linearGradient>
    <filter id="grain">
      <feTurbulence baseFrequency="0.75" numOctaves="3" stitchTiles="stitch"/>
      <feColorMatrix type="saturate" values="0"/>
      <feComponentTransfer>
        <feFuncA type="table" tableValues="0 0.13"/>
      </feComponentTransfer>
    </filter>
  </defs>
  <rect width="1920" height="1080" fill="url(#bg)"/>
  <path d="M0 780 L1920 645 L1920 1080 L0 1080 Z" fill="url(#floor)"/>
  <path d="M300 0 L1010 0 L885 690 L185 790 Z" fill="#121616"/>
  <path d="M1040 0 L1590 0 L1742 640 L990 690 Z" fill="#171614"/>
  <path d="M760 128 L1174 90 L1238 650 L650 706 Z" fill="#20211e"/>
  <path d="M790 168 L1140 134 L1186 606 L698 650 Z" fill="#0b0d0e"/>
  <path d="M842 190 L1110 168 L1135 568 L752 604 Z" fill="#222723"/>
  <path d="M0 722 L700 625 L1920 575 L1920 640 L710 696 L0 815 Z" fill="#090a0b" opacity="0.72"/>
  <path d="M1150 678 L1880 640 L1920 1080 L1300 1080 Z" fill="#110f0d" opacity="0.72"/>
  <g stroke="#c8a96a" stroke-width="2" opacity="0.28">
    <path d="M688 660 L1184 615"/>
    <path d="M734 696 L1240 648"/>
    <path d="M810 740 L1338 690"/>
  </g>
  <g stroke="#8fb8bd" stroke-width="1" opacity="0.18">
    <path d="M0 420 H1920"/>
    <path d="M0 540 H1920"/>
    <path d="M0 660 H1920"/>
    <path d="M420 0 V1080"/>
    <path d="M960 0 V1080"/>
    <path d="M1500 0 V1080"/>
  </g>
  <rect width="1920" height="1080" filter="url(#grain)" opacity="0.42"/>
</svg>
